<svg width="130" height="130" xmlns="http://www.w3.org/2000/svg">

 <g>
  <title>background</title>
  <rect fill="none" id="canvas_background" height="132" width="132" y="-1" x="-1"/>
 </g>
 <g>
  <title>Layer 1</title>
  <path stroke="null" fill="#ffffff" id="svg_1" d="m122.4015,64.58152c-0.31337,-0.24885 -3.23868,-2.45768 -9.40785,-2.45768c-1.62896,0.00712 -3.25452,0.14684 -4.86085,0.41784c-1.19399,-8.18395 -7.96014,-12.17404 -8.26351,-12.35304l-1.65661,-0.95532l-1.08953,1.5722c-1.36442,2.11197 -2.36049,4.44012 -2.94519,6.8855c-1.10457,4.67166 -0.43288,9.05955 1.94023,12.81082c-2.86563,1.59694 -7.46259,1.99003 -8.39286,2.02478l-76.10861,0c-1.98794,0.00276 -3.60104,1.60925 -3.61189,3.59703c-0.08876,6.66751 1.04086,13.29525 3.33329,19.55691c2.62178,6.87564 6.5223,11.94022 11.59694,15.03969c5.68648,3.48251 14.92518,5.47256 25.39767,5.47256c4.73101,0.01487 9.45311,-0.41331 14.1044,-1.27857c6.46572,-1.1872 12.68744,-3.4471 18.40773,-6.6866c4.71339,-2.72948 8.9554,-6.20183 12.56213,-10.28344c6.02976,-6.82582 9.62193,-14.42782 12.29336,-21.18379c0.35816,0 0.7165,0 1.06463,0c6.60187,0 10.66167,-2.64185 12.9004,-4.85567c1.4878,-1.41196 2.64928,-3.13197 3.40296,-5.0397l0.47266,-1.38302l-1.1395,-0.9005z"/>
  <path stroke="null" fill="#ffffff" id="svg_19" d="m8.74138,68.99136l10.31219,0c0.49817,0 0.90266,-0.40237 0.90544,-0.90038l0,-9.1906c-0.00278,-0.49818 -0.40727,-0.90038 -0.90544,-0.90038l-10.31219,0c-0.49736,0 -0.90038,0.40301 -0.90038,0.90038l0,0l0,9.19044c0,0.49736 0.40318,0.90054 0.90038,0.90054"/>
  <path stroke="null" fill="#ffffff" id="svg_20" d="m22.7726,68.99136l10.31219,0c0.49817,0 0.90266,-0.40237 0.90544,-0.90038l0,-9.1906c-0.00278,-0.49818 -0.40727,-0.90038 -0.90544,-0.90038l-10.31219,0c-0.49736,0 -0.90038,0.40301 -0.90038,0.90038l0,0l0,9.19044c0,0.49736 0.40318,0.90054 0.90038,0.90054"/>
  <path stroke="null" fill="#ffffff" id="svg_25" d="m21.7726,54.99136l10.31219,0c0.49817,0 0.90266,-0.40237 0.90544,-0.90038l0,-9.1906c-0.00278,-0.49818 -0.40727,-0.90038 -0.90544,-0.90038l-10.31219,0c-0.49736,0 -0.90038,0.40301 -0.90038,0.90038l0,0l0,9.19044c0,0.49736 0.40318,0.90054 0.90038,0.90054"/>
  <path stroke="null" fill="#ffffff" id="svg_21" d="m36.88984,68.99136l10.31219,0c0.49817,0 0.90267,-0.40237 0.90544,-0.90038l0,-9.1906c-0.00277,-0.49818 -0.40727,-0.90038 -0.90544,-0.90038l-10.31219,0c-0.49736,0 -0.90038,0.40301 -0.90038,0.90038l0,0l0,9.19044c0,0.49736 0.40318,0.90054 0.90038,0.90054"/>
  <path stroke="null" fill="#ffffff" id="svg_26" d="m35.88984,54.99136l10.31219,0c0.49817,0 0.90267,-0.40237 0.90544,-0.90038l0,-9.1906c-0.00277,-0.49818 -0.40727,-0.90038 -0.90544,-0.90038l-10.31219,0c-0.49736,0 -0.90038,0.40301 -0.90038,0.90038l0,0l0,9.19044c0,0.49736 0.40318,0.90054 0.90038,0.90054"/>
  <path stroke="null" fill="#ffffff" id="svg_16" d="m35.88984,40.955692l10.31219,0c0.49817,0 0.90267,-0.40237 0.90544,-0.90038l0,-9.1906c-0.00277,-0.49818 -0.40727,-0.90038 -0.90544,-0.90038l-10.31219,0c-0.49736,0 -0.90038,0.40301 -0.90038,0.90038l0,0l0,9.19044c0,0.49736 0.40318,0.90054 0.90038,0.90054"/>
  <path stroke="null" fill="#ffffff" id="svg_22" d="m50.88984,68.99136l10.31219,0c0.49817,0 0.90267,-0.40237 0.90544,-0.90038l0,-9.1906c-0.00277,-0.49818 -0.40727,-0.90038 -0.90544,-0.90038l-10.31219,0c-0.49736,0 -0.90038,0.40301 -0.90038,0.90038l0,0l0,9.19044c0,0.49736 0.40318,0.90054 0.90038,0.90054"/>
  <path stroke="null" fill="#ffffff" id="svg_27" d="m49.88984,54.99136l10.31219,0c0.49817,0 0.90267,-0.40237 0.90544,-0.90038l0,-9.1906c-0.00277,-0.49818 -0.40727,-0.90038 -0.90544,-0.90038l-10.31219,0c-0.49736,0 -0.90038,0.40301 -0.90038,0.90038l0,0l0,9.19044c0,0.49736 0.40318,0.90054 0.90038,0.90054"/>
  <path stroke="null" fill="#ffffff" id="svg_17" d="m49.88984,40.955692l10.31219,0c0.49817,0 0.90267,-0.40237 0.90544,-0.90038l0,-9.1906c-0.00277,-0.49818 -0.40727,-0.90038 -0.90544,-0.90038l-10.31219,0c-0.49736,0 -0.90038,0.40301 -0.90038,0.90038l0,0l0,9.19044c0,0.49736 0.40318,0.90054 0.90038,0.90054"/>
  <path stroke="null" fill="#ffffff" id="svg_23" d="m64.92106,68.99136l10.31219,0c0.49817,0 0.90267,-0.40237 0.90544,-0.90038l0,-9.1906c-0.00277,-0.49818 -0.40727,-0.90038 -0.90544,-0.90038l-10.31219,0c-0.49736,0 -0.90038,0.40301 -0.90038,0.90038l0,0l0,9.19044c0,0.49736 0.40318,0.90054 0.90038,0.90054"/>
  <path stroke="null" fill="#ffffff" id="svg_28" d="m63.92106,54.99136l10.31219,0c0.49817,0 0.90267,-0.40237 0.90544,-0.90038l0,-9.1906c-0.00277,-0.49818 -0.40727,-0.90038 -0.90544,-0.90038l-10.31219,0c-0.49736,0 -0.90038,0.40301 -0.90038,0.90038l0,0l0,9.19044c0,0.49736 0.40318,0.90054 0.90038,0.90054"/>
  <path stroke="null" fill="#ffffff" id="svg_29" d="m63.92106,40.95569l10.31219,0c0.49817,0 0.90267,-0.40237 0.90544,-0.90038l0,-9.1906c-0.00277,-0.49818 -0.40727,-0.90038 -0.90544,-0.90038l-10.31219,0c-0.49736,0 -0.90038,0.40301 -0.90038,0.90038l0,0l0,9.19044c0,0.49736 0.40318,0.90054 0.90038,0.90054"/>
  <path stroke="null" fill="#ffffff" id="svg_18" d="m63.92106,26.838449l10.31219,0c0.49817,0 0.90267,-0.40237 0.90544,-0.90038l0,-9.1906c-0.00277,-0.49818 -0.40727,-0.90038 -0.90544,-0.90038l-10.31219,0c-0.49736,0 -0.90038,0.40301 -0.90038,0.90038l0,0l0,9.19044c0,0.49736 0.40318,0.90054 0.90038,0.90054"/>
  <path stroke="null" fill="#ffffff" id="svg_24" d="m78.92106,68.99136l10.31219,0c0.49817,0 0.90267,-0.40237 0.90544,-0.90038l0,-9.1906c-0.00277,-0.49818 -0.40727,-0.90038 -0.90544,-0.90038l-10.31219,0c-0.49736,0 -0.90038,0.40301 -0.90038,0.90038l0,0l0,9.19044c0,0.49736 0.40318,0.90054 0.90038,0.90054"/>
 </g>
</svg>